<?xml version="1.0" standalone="no"?>
<!DOCTYPE svg PUBLIC "-//W3C//DTD SVG 20010904//EN"
 "http://www.w3.org/TR/2001/REC-SVG-20010904/DTD/svg10.dtd">
<svg version="1.0" xmlns="http://www.w3.org/2000/svg"
 width="204.000000pt" height="192.000000pt" viewBox="0 0 204.000000 192.000000"
 preserveAspectRatio="xMidYMid meet">

<g transform="translate(0.000000,192.000000) scale(0.100000,-0.100000)"
fill="#000000" stroke="none">
<path d="M801 1680 c-50 -12 -112 -60 -135 -105 -18 -33 -22 -62 -24 -172 l-4
-133 44 0 c61 0 78 16 86 79 5 42 13 58 33 73 24 18 29 19 86 4 34 -9 93 -16
133 -16 40 0 99 7 133 16 57 15 62 14 86 -4 20 -15 28 -31 32 -71 9 -69 21
-81 80 -81 l49 0 0 110 c0 60 -5 120 -11 133 -12 26 -47 47 -77 47 -25 0 -42
20 -42 46 0 13 -11 36 -24 51 l-24 28 -194 2 c-106 1 -208 -2 -227 -7z"/>
<path d="M733 660 c-51 -26 -149 -67 -219 -91 -175 -59 -219 -104 -231 -235
-6 -62 -5 -66 23 -96 60 -63 166 -139 262 -188 l99 -50 151 0 c84 0 152 2 152
4 0 2 -15 36 -34 77 -44 95 -104 278 -116 355 -14 82 -12 192 4 237 8 20 11
37 7 36 -3 0 -47 -22 -98 -49z"/>
<path d="M1216 673 c17 -50 17 -164 0 -255 -17 -84 -85 -288 -121 -359 -14
-27 -25 -51 -25 -54 0 -3 68 -5 152 -5 l151 0 101 51 c100 51 190 115 255 183
33 34 34 37 29 100 -6 74 -40 142 -86 175 -16 11 -84 39 -151 62 -68 23 -166
64 -218 91 -52 26 -96 48 -98 48 -1 0 3 -17 11 -37z"/>
<path d="M972 472 l-43 -37 23 -30 c20 -25 30 -30 68 -30 39 0 48 4 67 30 l21
30 -36 38 c-20 20 -41 37 -47 37 -5 0 -29 -17 -53 -38z"/>
</g>
</svg>
