<?xml version="1.0" standalone="no"?>
<!DOCTYPE svg PUBLIC "-//W3C//DTD SVG 20010904//EN"
 "http://www.w3.org/TR/2001/REC-SVG-20010904/DTD/svg10.dtd">
<svg version="1.0" xmlns="http://www.w3.org/2000/svg"
 width="225.000000pt" height="225.000000pt" viewBox="0 0 225.000000 225.000000"
 preserveAspectRatio="xMidYMid meet">

<g transform="translate(0.000000,225.000000) scale(0.100000,-0.100000)"
fill="#000000" stroke="none">
<path d="M453 1865 c-23 -16 -23 -17 -23 -309 0 -261 2 -295 17 -307 24 -20
582 -20 606 0 15 12 17 46 17 306 0 260 -2 294 -17 306 -12 11 -77 15 -297 17
-244 2 -284 1 -303 -13z m517 -310 l0 -215 -220 0 -220 0 0 215 0 215 220 0
220 0 0 -215z"/>
<path d="M1210 1867 l-25 -13 -3 -295 c-2 -267 -1 -298 14 -310 25 -20 583
-20 607 0 15 12 17 46 17 307 0 291 0 293 -22 308 -19 14 -64 16 -293 16 -197
0 -277 -4 -295 -13z m510 -312 l0 -215 -217 2 -218 3 -3 213 -2 212 220 0 220
0 0 -215z"/>
<path d="M442 1108 c-9 -9 -12 -90 -12 -304 0 -291 0 -293 22 -308 33 -24 563
-24 596 0 22 15 22 17 22 300 0 178 -4 293 -10 305 -10 18 -24 19 -308 19
-219 0 -301 -3 -310 -12z m526 -305 l2 -213 -220 0 -220 0 0 215 0 215 218 -2
217 -3 3 -212z"/>
<path d="M1190 1101 c-6 -12 -10 -127 -10 -305 0 -283 0 -285 22 -300 33 -24
563 -24 596 0 22 15 22 17 22 308 0 214 -3 295 -12 304 -9 9 -91 12 -310 12
-284 0 -298 -1 -308 -19z m530 -296 l0 -215 -220 0 -220 0 0 215 0 215 220 0
220 0 0 -215z"/>
</g>
</svg>
