<?xml version="1.0" standalone="no"?>
<!DOCTYPE svg PUBLIC "-//W3C//DTD SVG 20010904//EN"
 "http://www.w3.org/TR/2001/REC-SVG-20010904/DTD/svg10.dtd">
<svg version="1.0" xmlns="http://www.w3.org/2000/svg"
 width="512.000000pt" height="512.000000pt" viewBox="0 0 512.000000 512.000000"
 preserveAspectRatio="xMidYMid meet">

<g transform="translate(0.000000,512.000000) scale(0.100000,-0.100000)"
fill="#000000" stroke="none">
<path d="M2433 4760 c-331 -42 -621 -222 -801 -498 -173 -266 -223 -591 -138
-907 35 -129 73 -214 179 -403 296 -526 530 -1040 732 -1608 24 -67 50 -135
58 -151 37 -70 157 -71 193 -1 8 15 52 130 98 255 212 578 422 1034 700 1521
102 179 150 292 181 429 56 249 37 476 -60 703 -119 279 -373 513 -660 608
-143 48 -342 69 -482 52z m236 -665 c131 -31 257 -128 311 -239 191 -395 -211
-811 -605 -627 -351 164 -351 668 -1 832 105 49 188 59 295 34z"/>
<path d="M1820 1882 c-100 -8 -355 -47 -505 -77 -567 -113 -920 -292 -1031
-522 -25 -50 -28 -70 -28 -148 0 -79 3 -97 29 -150 34 -71 126 -171 209 -228
235 -160 684 -292 1216 -356 262 -32 395 -41 710 -48 952 -19 1818 140 2210
407 79 54 172 156 204 223 103 220 -24 446 -344 607 -252 127 -717 244 -1147
288 l-82 8 -40 -95 c-22 -53 -49 -119 -60 -146 l-19 -51 161 -18 c560 -62
1027 -200 1198 -354 61 -55 76 -85 55 -117 -72 -109 -306 -222 -631 -303 -401
-101 -822 -145 -1365 -146 -758 0 -1388 102 -1775 288 -117 57 -175 97 -213
150 -30 42 -21 67 47 128 179 161 716 313 1284 363 42 4 77 8 77 10 0 5 -120
289 -123 290 -1 0 -18 -1 -37 -3z"/>
</g>
</svg>
