<?xml version="1.0" standalone="no"?>
<!DOCTYPE svg PUBLIC "-//W3C//DTD SVG 20010904//EN"
 "http://www.w3.org/TR/2001/REC-SVG-20010904/DTD/svg10.dtd">
<svg version="1.0" xmlns="http://www.w3.org/2000/svg"
 width="204.000000pt" height="192.000000pt" viewBox="0 0 204.000000 192.000000"
 preserveAspectRatio="xMidYMid meet">

<g transform="translate(0.000000,192.000000) scale(0.100000,-0.100000)"
fill="#000000" stroke="none">
<path d="M1325 1614 c-61 -33 -96 -78 -116 -148 -13 -45 5 -97 84 -241 40 -71
73 -133 75 -137 2 -4 -75 -8 -171 -10 -173 -3 -174 -3 -210 -31 -49 -37 -67
-75 -67 -137 0 -62 18 -100 67 -137 l36 -28 231 -5 c158 -3 238 -9 253 -17 59
-35 80 -110 48 -173 -31 -60 -35 -60 -480 -60 l-406 0 36 63 c135 233 151 293
104 377 -69 126 -233 147 -331 43 -34 -36 -58 -92 -58 -138 0 -36 61 -163 151
-315 l45 -75 428 -3 c401 -2 430 -1 470 17 92 40 129 144 84 230 -47 91 -82
100 -356 101 l-202 0 -38 34 c-33 31 -37 39 -37 85 0 44 4 55 33 83 l32 33
197 5 197 5 38 65 c21 36 64 112 95 170 50 91 57 112 58 160 0 70 -28 125 -84
165 -35 24 -53 30 -109 32 -48 2 -76 -1 -97 -13z m175 -53 c41 -29 70 -80 70
-124 0 -30 -16 -72 -66 -166 -97 -183 -84 -175 -137 -84 -71 123 -117 221
-117 245 1 30 32 99 53 117 51 42 147 47 197 12z m-765 -611 c46 -44 62 -97
47 -147 -11 -36 -130 -255 -149 -274 -15 -15 -155 248 -160 301 -5 55 19 105
68 138 29 20 44 23 96 20 55 -3 67 -8 98 -38z"/>
<path d="M1334 1506 c-24 -24 -34 -43 -34 -65 0 -39 23 -85 52 -105 48 -34
135 -11 163 44 40 78 -16 160 -111 160 -28 0 -44 -8 -70 -34z m128 -33 c25
-23 23 -59 -7 -88 -29 -30 -45 -31 -79 -4 -30 24 -35 69 -10 93 20 21 73 20
96 -1z"/>
<path d="M590 943 c-28 -11 -59 -46 -70 -79 -21 -64 36 -138 106 -138 98 0
151 112 87 184 -28 31 -88 47 -123 33z m89 -70 c24 -30 20 -58 -11 -85 -28
-25 -55 -22 -83 7 -30 29 -32 58 -5 85 29 29 74 26 99 -7z"/>
</g>
</svg>
